<svg id="Calque_1" data-name="Calque 1" xmlns="http://www.w3.org/2000/svg" viewBox="0 0 113.88 50.47"><title>logo</title><path d="M865.91,591.45c-9.79,2.46-19,3.64-28.35,1.88-11.54-2.17-18.24-9.38-21.2-20.51-2.6-9.75-1.2-19.18,1.8-29.09C841.21,552.71,856.87,568.41,865.91,591.45Z" transform="translate(-814.99 -543.73)"/><path d="M878,591.36c9.08-23,24.7-38.69,47.84-47.63,4,14.55,5.41,28.24-4.08,40.8-4.31,5.7-10.51,8.4-17.32,9.22A65.12,65.12,0,0,1,878,591.36Z" transform="translate(-814.99 -543.73)"/><path d="M871.93,560.41l-8.14-8.18,8.07-8.11,7.79,8.57Z" transform="translate(-814.99 -543.73)"/></svg>